<?xml version="1.0" encoding="UTF-8"?>
<svg id="Layer_1" data-name="Layer 1" xmlns="http://www.w3.org/2000/svg" xmlns:xlink="http://www.w3.org/1999/xlink" viewBox="0 0 1920 1080">
  <defs>
    <style>
      .cls-1 {
        fill: indigo;
      }

      .cls-2 {
        fill: #222;
      }

      .cls-3 {
        fill: url(#New_Gradient_Swatch_1-3);
      }

      .cls-4 {
        fill: url(#New_Gradient_Swatch_1);
      }

      .cls-5 {
        fill: url(#New_Gradient_Swatch_1-2);
      }

      .cls-6 {
        fill: url(#linear-gradient);
      }

      .cls-7 {
        fill: #19191a;
      }

      .cls-8 {
        fill: #531dce;
      }
    </style>
    <linearGradient id="New_Gradient_Swatch_1" data-name="New Gradient Swatch 1" x1="846.63" y1="464.89" x2="844.99" y2="307.74" gradientUnits="userSpaceOnUse">
      <stop offset="0" stop-color="#aa40e6"/>
      <stop offset="1" stop-color="#5f22e9"/>
    </linearGradient>
    <linearGradient id="New_Gradient_Swatch_1-2" data-name="New Gradient Swatch 1" x1="906.1" y1="513.98" x2="906.1" y2="275.47" xlink:href="#New_Gradient_Swatch_1"/>
    <linearGradient id="linear-gradient" x1="966.39" y1="531.99" x2="966.39" y2="263.6" gradientUnits="userSpaceOnUse">
      <stop offset="0" stop-color="#aa40e6"/>
      <stop offset=".91" stop-color="#5f22e9"/>
    </linearGradient>
    <linearGradient id="New_Gradient_Swatch_1-3" data-name="New Gradient Swatch 1" x1="1023.58" y1="780.13" x2="1026.85" y2="378.28" xlink:href="#New_Gradient_Swatch_1"/>
  </defs>
  <path class="cls-7" d="m1072.41,197.65h-239.75c-54.45,0-98.6,44.15-98.6,98.6v239.75c0,54.45,44.15,98.59,98.6,98.59h70.74l-22.94-26.39h-47.28c-38.93,0-70.47-31.55-70.47-70.46v-242.62c0-38.9,31.55-70.46,70.47-70.46h237.9c38.92,0,70.47,31.56,70.47,70.46v93.93l16.16-14.9c.55-.52,1.12-1.01,1.7-1.47l11.58-10.62v-65.81c0-54.45-44.14-98.6-98.59-98.6Zm69.14,316.77v23.31c0,38.92-31.56,70.46-70.47,70.46h-15.18l-24.1,26.39h40.61c54.45,0,98.59-44.14,98.59-98.59v-53.81l-29.44,32.24Z"/>
  <rect class="cls-4" x="828.01" y="322.23" width="35.59" height="127.03" rx="16.21" ry="16.21"/>
  <rect class="cls-5" x="888.3" y="258.41" width="35.59" height="247.93" rx="16.21" ry="16.21"/>
  <rect class="cls-6" x="948.59" y="297.68" width="35.59" height="225.22" rx="16.21" ry="16.21"/>
  <rect class="cls-3" x="1008.89" y="343.1" width="35.59" height="111.69" rx="16.21" ry="16.21"/>
  <rect class="cls-8" x="1069.18" y="375.01" width="35.59" height="42.34" rx="16.21" ry="16.21"/>
  <path class="cls-1" d="m1198.01,415.75l-27.01,29.58-29.45,32.24-119.3,130.64-21.9,23.98c-.76.83-1.55,1.63-2.36,2.4-17.22,16.27-44.21,16.18-61.35,0-1.08-1.01-2.1-2.08-3.09-3.22l-20.15-23.17-69.03-79.37c-2.64-3.04-3.95-6.79-3.95-10.56,0-4,1.49-8.01,4.46-11.12,6.03-6.31,16-6.67,22.47-.8l81.09,73.65c6.49,5.9,16.39,5.85,22.82-.08l170.28-157.05,29.45-27.16,3.58-3.3c3.18-2.93,7.19-4.38,11.21-4.38,4.27,0,8.52,1.63,11.75,4.89,6.21,6.25,6.43,16.31.47,22.82Z"/>
  <g>
    <path class="cls-2" d="m621.35,700.61c-.84-.84-1.94-1.27-3.26-1.27h-97.57c-1.33,0-2.41.43-3.26,1.27-.86.84-1.27,1.94-1.27,3.26v19.41c0,1.21.42,2.26,1.27,3.17.84.92,1.92,1.37,3.26,1.37h32.27v93.93c0,1.21.43,2.26,1.27,3.17.84.91,1.94,1.36,3.27,1.36h23.94c1.33,0,2.41-.45,3.26-1.36.84-.91,1.27-1.96,1.27-3.17v-93.93h32.29c1.32,0,2.41-.45,3.26-1.37.84-.91,1.27-1.96,1.27-3.17v-19.41c0-1.32-.43-2.41-1.27-3.26Z"/>
    <path class="cls-2" d="m737.59,801.43c-.84-.84-1.94-1.27-3.26-1.27h-59.3v-25.21h53.86c1.33,0,2.42-.45,3.27-1.36.84-.91,1.27-1.96,1.27-3.17v-15.79c0-1.32-.43-2.44-1.27-3.35-.86-.91-1.94-1.37-3.27-1.37h-53.86v-24.48h57.85c1.33,0,2.43-.42,3.27-1.27.84-.84,1.27-1.92,1.27-3.26v-17.06c0-1.32-.43-2.41-1.27-3.26-.84-.84-1.94-1.27-3.27-1.27h-84.67c-1.33,0-2.43.43-3.27,1.27-.84.84-1.27,1.94-1.27,3.26v117.88c0,1.21.43,2.26,1.27,3.17.84.91,1.94,1.36,3.27,1.36h86.13c1.32,0,2.41-.45,3.26-1.36.84-.91,1.27-1.96,1.27-3.17v-17.06c0-1.32-.43-2.42-1.27-3.26Z"/>
    <path class="cls-2" d="m887.46,700.61c-.91-.84-2.02-1.27-3.36-1.27h-19.4c-2.06,0-3.55.52-4.45,1.55-.91,1.02-1.53,1.84-1.9,2.44l-31.91,57.13-31.92-57.13c-.24-.6-.84-1.42-1.81-2.44-.97-1.03-2.48-1.55-4.53-1.55h-19.58c-1.22,0-2.28.43-3.18,1.27-.91.84-1.36,1.94-1.36,3.26v117.88c0,1.21.45,2.26,1.36,3.17.91.91,1.96,1.36,3.18,1.36h21.76c1.32,0,2.41-.45,3.26-1.36.84-.91,1.27-1.96,1.27-3.17v-68.01l20.49,37.9c.6,1.09,1.4,2.06,2.36,2.91.96.84,2.29,1.27,3.99,1.27h9.42c1.7,0,3.03-.43,4-1.27.96-.84,1.75-1.81,2.35-2.91l20.31-37.9v68.01c0,1.21.45,2.26,1.36,3.17.91.91,2.03,1.36,3.36,1.36h21.57c1.33,0,2.45-.45,3.36-1.36.91-.91,1.36-1.96,1.36-3.17v-117.88c0-1.32-.45-2.41-1.36-3.26Z"/>
    <path class="cls-2" d="m1017.66,717.84c-4.16-6.18-9.97-10.79-17.41-13.87-7.43-3.08-16.16-4.63-26.2-4.63h-50.78c-1.33,0-2.41.43-3.26,1.27-.86.84-1.27,1.94-1.27,3.26v117.88c0,1.21.41,2.26,1.27,3.17.84.91,1.92,1.36,3.26,1.36h24.48c1.33,0,2.45-.45,3.36-1.36.91-.91,1.36-1.96,1.36-3.17v-39.72h21.58c10.04,0,18.77-1.45,26.2-4.35,7.43-2.89,13.24-7.37,17.41-13.42,4.18-6.04,6.26-13.71,6.26-23.03s-2.09-17.22-6.26-23.38Zm-32.1,35.18c-3.08,2.65-7.22,3.99-12.41,3.99h-21.22v-32.46h21.22c6.04,0,10.39,1.57,13.06,4.72,2.65,3.14,3.99,7.01,3.99,11.61,0,5.43-1.53,9.48-4.63,12.15Z"/>
    <path class="cls-2" d="m1153.57,747.4c-.36-10.88-2.91-20.04-7.62-27.48-4.7-7.43-11.18-13.02-19.4-16.77-8.23-3.75-17.84-5.62-28.84-5.62s-20.45,1.87-28.74,5.62c-8.28,3.75-14.74,9.33-19.4,16.77-4.65,7.45-7.23,16.6-7.71,27.48-.13,5.19-.18,10.43-.18,15.68s.05,10.49.18,15.68c.48,11.01,3.02,20.16,7.62,27.47,4.59,7.32,10.99,12.78,19.22,16.41,8.21,3.62,17.89,5.43,29,5.43s20.8-1.81,29.02-5.43c8.23-3.64,14.67-9.09,19.32-16.41,4.64-7.31,7.16-16.46,7.52-27.47.24-5.19.36-10.43.36-15.68s-.13-10.49-.36-15.68Zm-33.73,30.27c-.24,8.46-2.39,14.63-6.44,18.5-4.05,3.87-9.27,5.8-15.68,5.8s-11.45-1.92-15.5-5.8c-4.05-3.87-6.26-10.04-6.62-18.5-.13-5.31-.19-10.33-.19-15.04s.06-9.61.19-14.69c.24-5.69,1.32-10.3,3.26-13.87,1.94-3.56,4.53-6.19,7.8-7.89,3.26-1.7,6.96-2.54,11.06-2.54s7.99.84,11.24,2.54c3.27,1.7,5.84,4.33,7.71,7.89,1.87,3.57,2.93,8.19,3.17,13.87.25,5.08.36,9.97.36,14.69s-.11,9.74-.36,15.04Z"/>
    <path class="cls-2" d="m1270.71,700.61c-.84-.84-1.94-1.27-3.26-1.27h-83.42c-1.33,0-2.43.43-3.27,1.27-.84.84-1.27,1.94-1.27,3.26v117.88c0,1.21.43,2.26,1.27,3.17.84.91,1.94,1.36,3.27,1.36h22.84c1.33,0,2.43-.45,3.27-1.36.84-.91,1.27-1.96,1.27-3.17v-40.99h52.4c1.33,0,2.42-.45,3.27-1.36.84-.91,1.27-1.96,1.27-3.17v-18.14c0-1.32-.43-2.44-1.27-3.35-.86-.92-1.94-1.37-3.27-1.37h-52.4v-26.65h56.03c1.32,0,2.42-.42,3.26-1.27.84-.84,1.27-1.92,1.27-3.26v-18.33c0-1.32-.43-2.41-1.27-3.26Z"/>
    <path class="cls-2" d="m1402.91,700.52c-.72-.79-1.62-1.18-2.72-1.18h-22.67c-1.81,0-3.23.45-4.26,1.36-1.03.91-1.72,1.72-2.09,2.45l-26.11,46.78-25.92-46.78c-.36-.73-1.07-1.55-2.09-2.45-1.03-.91-2.45-1.36-4.26-1.36h-22.67c-1.09,0-2.02.39-2.82,1.18-.78.79-1.17,1.66-1.17,2.63,0,.36.05.69.18.99.13.3.24.64.36.99l42.07,77.62v38.99c0,1.21.45,2.26,1.36,3.17.91.91,1.96,1.36,3.17,1.36h23.57c1.33,0,2.45-.45,3.36-1.36.91-.91,1.36-1.96,1.36-3.17v-38.99l42.07-77.62c.11-.35.21-.69.28-.99.05-.3.09-.63.09-.99,0-.97-.36-1.84-1.09-2.63Z"/>
  </g>
  <g>
    <path class="cls-2" d="m575.41,858.06c-.79-1.26-1.9-2.2-3.33-2.83-1.45-.64-3.13-.96-5.08-.96h-10.05c-.29,0-.52.09-.67.26-.16.16-.24.4-.24.69v25.81c0,.26.08.49.24.65.15.18.38.26.67.26h2.1c.29,0,.52-.09.69-.26.18-.16.25-.39.25-.65v-9.89h7.01c1.95,0,3.64-.31,5.08-.94,1.43-.63,2.54-1.57,3.33-2.8.79-1.25,1.2-2.79,1.2-4.67s-.4-3.43-1.2-4.68Zm-4.23,8.48c-.98.87-2.44,1.3-4.39,1.3h-6.84v-10.24h6.84c2,0,3.48.45,4.43,1.35.94.89,1.42,2.16,1.42,3.8s-.49,2.93-1.46,3.8Z"/>
    <path class="cls-2" d="m610.01,880.72l-6.1-10.52c1.75-.5,3.12-1.38,4.14-2.67,1.02-1.28,1.52-2.93,1.52-4.97,0-2.74-.87-4.8-2.6-6.2-1.75-1.4-4.1-2.1-7.08-2.1h-9.65c-.29,0-.52.09-.67.26-.16.16-.24.4-.24.69v25.81c0,.26.08.49.24.65.15.18.38.26.67.26h2.01c.29,0,.53-.09.69-.26.18-.16.26-.39.26-.65v-10.2h6.92l5.74,10.05c.15.24.34.47.55.7.2.24.53.36.98.36h1.9c.21,0,.4-.09.58-.24.16-.16.25-.34.25-.55,0-.14-.04-.28-.11-.44Zm-10.29-13.24h-6.52v-9.89h6.52c2.01,0,3.48.43,4.45,1.27.96.84,1.45,2.08,1.45,3.67s-.49,2.87-1.47,3.7c-.97.83-2.45,1.25-4.43,1.25Z"/>
    <path class="cls-2" d="m644.01,864.79c-.08-2.41-.58-4.44-1.51-6.06-.92-1.62-2.19-2.83-3.81-3.63-1.62-.81-3.5-1.21-5.63-1.21s-4.05.4-5.67,1.21c-1.62.8-2.88,2.01-3.8,3.63-.91,1.62-1.41,3.65-1.52,6.06-.03,1.17-.04,2.28-.04,3.35s.01,2.18.04,3.35c.11,2.44.59,4.48,1.47,6.1.87,1.62,2.1,2.83,3.71,3.6,1.61.78,3.55,1.17,5.81,1.17s4.16-.39,5.77-1.17c1.61-.77,2.86-1.97,3.74-3.6.88-1.62,1.37-3.66,1.45-6.1.05-1.17.08-2.28.08-3.35s-.03-2.18-.08-3.35Zm-3.96,6.49c-.1,2.72-.79,4.68-2.08,5.89-1.27,1.22-2.92,1.82-4.92,1.82s-3.65-.6-4.94-1.82c-1.3-1.21-1.99-3.17-2.09-5.89-.04-1.18-.05-2.25-.05-3.18s.01-1.99.05-3.14c.08-1.82.43-3.3,1.04-4.43.62-1.13,1.45-1.96,2.47-2.49,1.03-.53,2.2-.79,3.52-.79s2.49.26,3.52.79,1.85,1.36,2.47,2.49c.63,1.13.96,2.6,1.01,4.43.06,1.16.09,2.21.09,3.14s-.02,2-.09,3.18Z"/>
    <path class="cls-2" d="m679.03,864.99c-.03-2.31-.43-4.28-1.19-5.87-.75-1.58-1.97-2.79-3.64-3.61-1.66-.82-3.85-1.23-6.57-1.23h-8.97c-.29,0-.52.09-.68.26-.15.16-.23.4-.23.69v25.81c0,.26.08.49.23.65.16.18.39.26.68.26h9.17c2.67,0,4.8-.39,6.43-1.17s2.8-1.96,3.56-3.56c.75-1.6,1.14-3.61,1.21-6.02.03-1.17.04-2.19.04-3.09s-.01-1.94-.04-3.12Zm-3.84,3.97c0,.59-.03,1.28-.09,2.08-.03,1.82-.28,3.28-.77,4.39-.49,1.11-1.27,1.91-2.35,2.41-1.08.5-2.53.74-4.35.74h-6v-20.95h5.81c2.74,0,4.69.62,5.85,1.85,1.16,1.22,1.76,3.12,1.81,5.67.06.75.09,1.43.09,2.04v1.77Z"/>
    <path class="cls-2" d="m713.76,854.54c-.18-.18-.39-.26-.65-.26h-2.05c-.26,0-.49.09-.65.26-.18.16-.26.4-.26.69v16.12c0,2.59-.6,4.49-1.84,5.74-1.22,1.25-2.88,1.86-4.96,1.86s-3.77-.62-4.98-1.86c-1.22-1.25-1.82-3.14-1.82-5.74v-16.12c0-.29-.09-.53-.25-.69-.18-.18-.4-.26-.69-.26h-2.02c-.29,0-.5.09-.67.26-.16.16-.24.4-.24.69v16.05c0,2.55.43,4.64,1.28,6.26.86,1.62,2.09,2.83,3.69,3.62,1.58.79,3.5,1.18,5.71,1.18s4.15-.39,5.74-1.18c1.57-.79,2.79-2,3.65-3.62.86-1.62,1.28-3.71,1.28-6.26v-16.05c0-.29-.08-.53-.25-.69Z"/>
    <path class="cls-2" d="m748.73,872.7h-2.18c-.24,0-.44.06-.6.2-.18.13-.3.36-.38.7-.45,2.06-1.28,3.47-2.52,4.24-1.22.77-2.74,1.14-4.57,1.14-2.14,0-3.82-.6-5.06-1.8-1.25-1.19-1.9-3.12-1.97-5.76-.09-2.26-.09-4.48,0-6.64.08-2.63.73-4.54,1.97-5.75,1.23-1.19,2.92-1.8,5.06-1.8,1.82,0,3.35.39,4.57,1.14,1.23.77,2.06,2.18,2.52,4.24.08.34.2.58.38.7.16.14.36.2.6.2h2.18c.24,0,.44-.08.62-.24.18-.16.24-.35.21-.59-.05-1.11-.31-2.19-.79-3.22-.47-1.04-1.16-1.99-2.08-2.83-.91-.84-2.05-1.52-3.42-2.01-1.37-.5-2.96-.75-4.78-.75-2.43,0-4.43.44-6.02,1.35-1.6.89-2.8,2.15-3.62,3.75-.82,1.61-1.26,3.48-1.35,5.62-.03,1.13-.04,2.31-.04,3.56s.01,2.39.04,3.47c.09,2.14.53,4.01,1.35,5.62.82,1.6,2.02,2.86,3.62,3.75s3.6,1.35,6.02,1.35c1.82,0,3.41-.25,4.78-.75,1.37-.49,2.52-1.17,3.42-2.01.92-.84,1.61-1.79,2.08-2.84.48-1.06.74-2.14.79-3.25.03-.24-.04-.43-.21-.58-.18-.14-.38-.21-.62-.21Z"/>
    <path class="cls-2" d="m780.98,854.54c-.18-.18-.4-.26-.69-.26h-19.07c-.26,0-.48.09-.64.26-.18.16-.26.4-.26.69v1.66c0,.26.09.48.26.65.16.16.38.25.64.25h7.6v23.24c0,.26.09.49.25.65.18.18.39.26.65.26h2.06c.29,0,.52-.09.69-.26.16-.16.25-.39.25-.65v-23.24h7.56c.29,0,.52-.09.69-.25.16-.18.25-.39.25-.65v-1.66c0-.29-.09-.53-.25-.69Z"/>
    <path class="cls-2" d="m797.24,854.54c-.16-.18-.38-.26-.67-.26h-2.1c-.29,0-.52.09-.68.26-.15.16-.23.39-.23.65v25.85c0,.26.08.49.23.65.16.18.39.26.68.26h2.1c.29,0,.5-.09.67-.26.16-.16.24-.39.24-.65v-25.85c0-.26-.08-.49-.24-.65Z"/>
    <path class="cls-2" d="m833.16,854.51c-.18-.15-.36-.24-.58-.24h-2.05c-.33,0-.55.09-.72.26-.16.16-.26.31-.31.45l-7.75,22.41-7.71-22.41c-.05-.14-.16-.29-.34-.45-.18-.18-.41-.26-.73-.26h-2.05c-.21,0-.4.09-.55.24-.16.16-.24.34-.24.55,0,.14.03.28.08.44l8.82,25.42c.13.31.3.57.53.75.23.18.54.28.93.28h2.58c.39,0,.7-.1.92-.28.23-.19.39-.44.5-.75l8.85-25.42c.05-.16.08-.3.08-.44,0-.21-.09-.39-.25-.55Z"/>
    <path class="cls-2" d="m849.74,854.54c-.15-.18-.38-.26-.67-.26h-2.1c-.29,0-.52.09-.67.26-.16.16-.24.39-.24.65v25.85c0,.26.08.49.24.65.15.18.38.26.67.26h2.1c.29,0,.52-.09.67-.26.16-.16.24-.39.24-.65v-25.85c0-.26-.08-.49-.24-.65Z"/>
    <path class="cls-2" d="m882.97,854.54c-.18-.18-.4-.26-.69-.26h-19.06c-.26,0-.48.09-.65.26-.18.16-.25.4-.25.69v1.66c0,.26.08.48.25.65.18.16.39.25.65.25h7.6v23.24c0,.26.08.49.25.65.18.18.39.26.65.26h2.05c.29,0,.53-.09.69-.26.18-.16.26-.39.26-.65v-23.24h7.55c.29,0,.52-.09.69-.25.18-.18.26-.39.26-.65v-1.66c0-.29-.09-.53-.26-.69Z"/>
    <path class="cls-2" d="m916.28,854.51c-.15-.15-.35-.24-.59-.24h-2.01c-.24,0-.44.06-.62.18-.18.13-.33.29-.45.5l-7.71,12.8-7.71-12.8c-.08-.21-.21-.38-.39-.5-.19-.11-.4-.18-.64-.18h-2.05c-.21,0-.4.09-.55.24-.16.16-.24.34-.24.55,0,.11.01.2.04.28s.05.16.08.24l9.53,16.14v9.32c0,.26.09.49.25.65.18.18.39.26.65.26h2.06c.29,0,.52-.09.69-.26.16-.16.25-.39.25-.65v-9.32l9.5-16.14c.05-.08.09-.16.11-.24s.04-.16.04-.28c0-.21-.08-.39-.24-.55Z"/>
    <path class="cls-2" d="m949.17,854.54c-.15-.18-.38-.26-.67-.26h-2.1c-.29,0-.5.09-.67.26-.16.16-.24.39-.24.65v25.85c0,.26.08.49.24.65.16.18.38.26.67.26h2.1c.29,0,.52-.09.67-.26.16-.16.24-.39.24-.65v-25.85c0-.26-.08-.49-.24-.65Z"/>
    <path class="cls-2" d="m984.54,854.54c-.18-.18-.4-.26-.69-.26h-1.9c-.29,0-.52.09-.67.26-.16.16-.24.4-.24.69v19.76l-13.13-20.16c-.03-.08-.11-.19-.28-.33-.15-.15-.39-.23-.7-.23h-1.82c-.29,0-.52.09-.67.26-.16.16-.24.4-.24.69v25.81c0,.26.08.49.24.65.15.18.38.26.67.26h1.9c.29,0,.52-.09.69-.26.18-.16.26-.39.26-.65v-19.61l13.08,19.97c.05.05.15.15.3.31.14.15.35.24.64.24h1.9c.26,0,.48-.1.65-.28.18-.19.26-.42.26-.68v-25.77c0-.29-.09-.53-.26-.69Z"/>
    <path class="cls-2" d="m1036.75,854.51c-.16-.15-.36-.24-.59-.24h-2.03c-.24,0-.44.06-.6.18-.18.13-.33.29-.47.5l-7.71,12.8-7.7-12.8c-.09-.21-.21-.38-.4-.5-.19-.11-.39-.18-.63-.18h-2.06c-.2,0-.39.09-.55.24-.15.16-.24.34-.24.55,0,.11.01.2.05.28.03.08.05.16.08.24l9.52,16.14v9.32c0,.26.09.49.26.65.18.18.39.26.65.26h2.05c.29,0,.53-.09.69-.26.18-.16.26-.39.26-.65v-9.32l9.48-16.14c.05-.08.09-.16.11-.24.02-.08.05-.16.05-.28,0-.21-.09-.39-.24-.55Z"/>
    <path class="cls-2" d="m1069.24,864.79c-.08-2.41-.58-4.44-1.5-6.06-.92-1.62-2.19-2.83-3.81-3.63-1.62-.81-3.5-1.21-5.63-1.21s-4.05.4-5.67,1.21c-1.62.8-2.89,2.01-3.8,3.63-.91,1.62-1.42,3.65-1.52,6.06-.03,1.17-.04,2.28-.04,3.35s.01,2.18.04,3.35c.1,2.44.59,4.48,1.46,6.1.87,1.62,2.11,2.83,3.72,3.6,1.61.78,3.55,1.17,5.81,1.17s4.16-.39,5.77-1.17c1.61-.77,2.84-1.97,3.74-3.6.88-1.62,1.36-3.66,1.43-6.1.06-1.17.09-2.28.09-3.35s-.03-2.18-.09-3.35Zm-3.95,6.49c-.1,2.72-.79,4.68-2.08,5.89-1.28,1.22-2.92,1.82-4.92,1.82s-3.65-.6-4.94-1.82c-1.3-1.21-1.99-3.17-2.1-5.89-.03-1.18-.04-2.25-.04-3.18s.01-1.99.04-3.14c.09-1.82.43-3.3,1.06-4.43.62-1.13,1.43-1.96,2.47-2.49s2.2-.79,3.52-.79,2.49.26,3.52.79c1.02.53,1.85,1.36,2.47,2.49.62,1.13.96,2.6,1.01,4.43.05,1.16.08,2.21.08,3.14s-.03,2-.08,3.18Z"/>
    <path class="cls-2" d="m1103.85,854.54c-.16-.18-.39-.26-.64-.26h-2.06c-.26,0-.48.09-.65.26-.16.16-.25.4-.25.69v16.12c0,2.59-.62,4.49-1.84,5.74-1.23,1.25-2.88,1.86-4.97,1.86s-3.77-.62-4.98-1.86-1.82-3.14-1.82-5.74v-16.12c0-.29-.08-.53-.25-.69-.18-.18-.4-.26-.69-.26h-2.01c-.29,0-.52.09-.68.26-.15.16-.24.4-.24.69v16.05c0,2.55.44,4.64,1.3,6.26.86,1.62,2.08,2.83,3.67,3.62s3.5,1.18,5.71,1.18,4.15-.39,5.74-1.18,2.8-2,3.66-3.62c.86-1.62,1.28-3.71,1.28-6.26v-16.05c0-.29-.09-.53-.26-.69Z"/>
    <path class="cls-2" d="m1139.3,880.72l-6.09-10.52c1.74-.5,3.12-1.38,4.14-2.67,1.01-1.28,1.52-2.93,1.52-4.97,0-2.74-.88-4.8-2.62-6.2-1.74-1.4-4.1-2.1-7.07-2.1h-9.65c-.29,0-.52.09-.68.26-.15.16-.24.4-.24.69v25.81c0,.26.09.49.24.65.16.18.39.26.68.26h2.01c.29,0,.52-.09.69-.26.16-.16.25-.39.25-.65v-10.2h6.92l5.74,10.05c.16.24.34.47.55.7.21.24.54.36.99.36h1.9c.2,0,.4-.09.57-.24.18-.16.26-.34.26-.55,0-.14-.05-.28-.13-.44Zm-10.28-13.24h-6.53v-9.89h6.53c2,0,3.48.43,4.45,1.27.96.84,1.43,2.08,1.43,3.67s-.49,2.87-1.46,3.7c-.97.83-2.45,1.25-4.43,1.25Z"/>
    <path class="cls-2" d="m1190.69,880.72l-6.09-10.52c1.75-.5,3.12-1.38,4.14-2.67,1.02-1.28,1.52-2.93,1.52-4.97,0-2.74-.87-4.8-2.62-6.2-1.74-1.4-4.09-2.1-7.07-2.1h-9.65c-.29,0-.52.09-.68.26-.15.16-.23.4-.23.69v25.81c0,.26.08.49.23.65.16.18.39.26.68.26h2.01c.29,0,.52-.09.69-.26.18-.16.26-.39.26-.65v-10.2h6.92l5.72,10.05c.16.24.35.47.55.7.21.24.54.36.99.36h1.9c.21,0,.4-.09.57-.24.18-.16.26-.34.26-.55,0-.14-.04-.28-.13-.44Zm-10.28-13.24h-6.52v-9.89h6.52c2,0,3.48.43,4.45,1.27.96.84,1.45,2.08,1.45,3.67s-.49,2.87-1.47,3.7c-.97.83-2.45,1.25-4.43,1.25Z"/>
    <path class="cls-2" d="m1224.92,854.54c-.18-.18-.4-.26-.69-.26h-2.01c-.26,0-.49.09-.65.26-.18.16-.26.4-.26.69v10.91h-13.6v-10.91c0-.29-.09-.53-.25-.69-.18-.18-.4-.26-.69-.26h-2.03c-.29,0-.52.09-.67.26-.16.16-.24.4-.24.69v25.81c0,.26.08.49.24.65.15.18.38.26.67.26h2.03c.29,0,.52-.09.69-.26.16-.16.25-.39.25-.65v-11.35h13.6v11.35c0,.26.09.49.26.65.16.18.39.26.65.26h2.01c.29,0,.52-.09.69-.26.18-.16.25-.39.25-.65v-25.81c0-.29-.08-.53-.25-.69Z"/>
    <path class="cls-2" d="m1260.67,854.51c-.16-.15-.35-.24-.59-.24h-2.01c-.24,0-.45.06-.62.18-.18.13-.33.29-.45.5l-7.71,12.8-7.71-12.8c-.08-.21-.21-.38-.4-.5-.18-.11-.39-.18-.63-.18h-2.05c-.21,0-.4.09-.55.24-.16.16-.24.34-.24.55,0,.11.01.2.04.28s.05.16.08.24l9.53,16.14v9.32c0,.26.09.49.25.65.18.18.39.26.65.26h2.05c.3,0,.53-.09.69-.26.18-.16.26-.39.26-.65v-9.32l9.48-16.14c.05-.08.1-.16.13-.24s.04-.16.04-.28c0-.21-.08-.39-.24-.55Z"/>
    <path class="cls-2" d="m1291.65,854.54c-.18-.18-.4-.26-.69-.26h-19.06c-.26,0-.49.09-.65.26-.18.16-.26.4-.26.69v1.66c0,.26.09.48.26.65.16.16.39.25.65.25h7.58v23.24c0,.26.09.49.26.65.16.18.38.26.64.26h2.06c.29,0,.52-.09.69-.26.18-.16.25-.39.25-.65v-23.24h7.56c.29,0,.52-.09.69-.25.16-.18.25-.39.25-.65v-1.66c0-.29-.09-.53-.25-.69Z"/>
    <path class="cls-2" d="m1325.34,854.54c-.18-.18-.4-.26-.69-.26h-2.03c-.26,0-.48.09-.64.26-.18.16-.26.4-.26.69v10.91h-13.6v-10.91c0-.29-.09-.53-.26-.69-.16-.18-.4-.26-.69-.26h-2.01c-.29,0-.52.09-.67.26-.16.16-.24.4-.24.69v25.81c0,.26.08.49.24.65.15.18.38.26.67.26h2.01c.29,0,.53-.09.69-.26.18-.16.26-.39.26-.65v-11.35h13.6v11.35c0,.26.09.49.26.65.16.18.38.26.64.26h2.03c.29,0,.52-.09.69-.26.16-.16.25-.39.25-.65v-25.81c0-.29-.09-.53-.25-.69Z"/>
    <path class="cls-2" d="m1364.67,854.54c-.16-.18-.4-.26-.69-.26h-1.94c-.31,0-.54.09-.69.24-.14.16-.24.29-.29.4l-8.43,15.96-8.34-15.96c-.05-.11-.16-.24-.31-.4-.16-.15-.4-.24-.72-.24h-1.97c-.26,0-.48.09-.65.26-.18.16-.25.4-.25.69v25.81c0,.26.08.49.25.65.18.18.39.26.65.26h1.94c.26,0,.48-.09.65-.26.18-.16.25-.39.25-.65v-19.45l6.64,12.89c.14.25.29.47.48.6.19.15.45.23.79.23h1.22c.33,0,.58-.08.79-.23.21-.14.38-.35.48-.6l6.6-12.89v19.45c0,.26.09.49.25.65.18.18.39.26.65.26h1.94c.29,0,.53-.09.69-.26.18-.16.26-.39.26-.65v-25.81c0-.29-.09-.53-.26-.69Z"/>
  </g>
</svg>