<?xml version="1.0" encoding="UTF-8"?>
<svg id="Layer_1" data-name="Layer 1" xmlns="http://www.w3.org/2000/svg" viewBox="0 0 1920 1080">
  <defs>
    <style>
      .cls-1 {
        fill: #222;
      }
    </style>
  </defs>
  <g>
    <path class="cls-1" d="m466.16,409.73c-1.23-1.23-2.82-1.85-4.75-1.85h-142.28c-1.94,0-3.52.62-4.75,1.85-1.25,1.23-1.85,2.82-1.85,4.75v28.3c0,1.76.61,3.3,1.85,4.62,1.23,1.34,2.81,2,4.75,2h47.07v136.98c0,1.76.62,3.3,1.85,4.62,1.23,1.32,2.82,1.98,4.77,1.98h34.91c1.94,0,3.52-.66,4.75-1.98,1.23-1.32,1.85-2.86,1.85-4.62v-136.98h47.08c1.93,0,3.52-.66,4.75-2,1.23-1.32,1.85-2.86,1.85-4.62v-28.3c0-1.93-.62-3.52-1.85-4.75Z"/>
    <path class="cls-1" d="m635.66,556.76c-1.23-1.23-2.82-1.85-4.75-1.85h-86.48v-36.76h78.54c1.94,0,3.52-.66,4.77-1.98,1.23-1.32,1.85-2.86,1.85-4.62v-23.02c0-1.93-.62-3.56-1.85-4.88-1.25-1.32-2.82-2-4.77-2h-78.54v-35.69h84.36c1.94,0,3.54-.61,4.77-1.85,1.23-1.23,1.85-2.81,1.85-4.75v-24.87c0-1.93-.62-3.52-1.85-4.75-1.23-1.23-2.82-1.85-4.77-1.85h-123.48c-1.94,0-3.54.62-4.77,1.85-1.23,1.23-1.85,2.82-1.85,4.75v171.9c0,1.76.62,3.3,1.85,4.62,1.23,1.32,2.82,1.98,4.77,1.98h125.61c1.93,0,3.52-.66,4.75-1.98,1.23-1.32,1.85-2.86,1.85-4.62v-24.87c0-1.93-.62-3.52-1.85-4.75Z"/>
    <path class="cls-1" d="m854.22,409.73c-1.32-1.23-2.95-1.85-4.9-1.85h-28.28c-3.01,0-5.17.75-6.49,2.26-1.32,1.49-2.24,2.68-2.77,3.56l-46.53,83.31-46.55-83.31c-.35-.88-1.23-2.07-2.64-3.56-1.41-1.5-3.61-2.26-6.6-2.26h-28.56c-1.78,0-3.32.62-4.64,1.85-1.32,1.23-1.98,2.82-1.98,4.75v171.9c0,1.76.66,3.3,1.98,4.62,1.32,1.32,2.86,1.98,4.64,1.98h31.73c1.93,0,3.52-.66,4.75-1.98,1.23-1.32,1.85-2.86,1.85-4.62v-99.18l29.88,55.26c.88,1.6,2.04,3.01,3.45,4.24,1.39,1.23,3.34,1.85,5.81,1.85h13.74c2.48,0,4.42-.62,5.83-1.85,1.39-1.23,2.55-2.64,3.43-4.24l29.62-55.26v99.18c0,1.76.66,3.3,1.98,4.62,1.32,1.32,2.95,1.98,4.9,1.98h31.46c1.94,0,3.58-.66,4.9-1.98,1.32-1.32,1.98-2.86,1.98-4.62v-171.9c0-1.93-.66-3.52-1.98-4.75Z"/>
    <path class="cls-1" d="m1044.08,434.86c-6.07-9.01-14.55-15.74-25.39-20.23-10.84-4.49-23.57-6.75-38.21-6.75h-74.05c-1.94,0-3.52.62-4.75,1.85-1.25,1.23-1.85,2.82-1.85,4.75v171.9c0,1.76.6,3.3,1.85,4.62,1.23,1.32,2.81,1.98,4.75,1.98h35.69c1.94,0,3.58-.66,4.9-1.98,1.32-1.32,1.98-2.86,1.98-4.62v-57.92h31.48c14.64,0,27.37-2.11,38.21-6.35,10.84-4.22,19.31-10.75,25.39-19.57,6.09-8.8,9.13-19.99,9.13-33.58s-3.04-25.11-9.13-34.1Zm-46.81,51.3c-4.49,3.87-10.53,5.81-18.1,5.81h-30.94v-47.34h30.94c8.8,0,15.15,2.29,19.04,6.88,3.87,4.59,5.81,10.22,5.81,16.93,0,7.92-2.24,13.83-6.75,17.72Z"/>
    <path class="cls-1" d="m1242.29,477.97c-.53-15.87-4.24-29.22-11.12-40.08-6.86-10.84-16.31-18.98-28.28-24.45-12-5.47-26.01-8.2-42.06-8.2s-29.82,2.73-41.91,8.2c-12.07,5.47-21.5,13.61-28.28,24.45-6.79,10.86-10.55,24.21-11.24,40.08-.18,7.58-.26,15.21-.26,22.87s.07,15.3.26,22.87c.7,16.05,4.4,29.4,11.12,40.06,6.69,10.68,16.03,18.64,28.03,23.94,11.98,5.28,26.08,7.92,42.3,7.92s30.34-2.64,42.32-7.92c12-5.3,21.39-13.26,28.17-23.94,6.77-10.66,10.44-24.01,10.97-40.06.35-7.58.53-15.21.53-22.87s-.18-15.3-.53-22.87Zm-49.19,44.15c-.35,12.34-3.48,21.33-9.39,26.98-5.91,5.65-13.52,8.46-22.87,8.46s-16.69-2.81-22.6-8.46c-5.91-5.65-9.13-14.64-9.65-26.98-.18-7.74-.28-15.06-.28-21.94s.09-14.01.28-21.42c.35-8.29,1.93-15.02,4.75-20.23,2.82-5.19,6.6-9.02,11.37-11.5,4.75-2.48,10.14-3.71,16.12-3.71s11.65,1.23,16.4,3.71c4.77,2.48,8.51,6.31,11.24,11.5,2.73,5.21,4.27,11.94,4.62,20.23.37,7.41.53,14.55.53,21.42s-.17,14.2-.53,21.94Z"/>
    <path class="cls-1" d="m1413.1,409.73c-1.23-1.23-2.82-1.85-4.75-1.85h-121.64c-1.94,0-3.54.62-4.77,1.85-1.23,1.23-1.85,2.82-1.85,4.75v171.9c0,1.76.62,3.3,1.85,4.62,1.23,1.32,2.82,1.98,4.77,1.98h33.31c1.94,0,3.54-.66,4.77-1.98,1.23-1.32,1.85-2.86,1.85-4.62v-59.78h76.41c1.94,0,3.52-.66,4.77-1.98,1.23-1.32,1.85-2.86,1.85-4.62v-26.45c0-1.93-.62-3.56-1.85-4.88-1.25-1.34-2.82-2-4.77-2h-76.41v-38.87h81.71c1.93,0,3.52-.61,4.75-1.85,1.23-1.23,1.85-2.81,1.85-4.75v-26.72c0-1.93-.62-3.52-1.85-4.75Z"/>
    <path class="cls-1" d="m1605.88,409.61c-1.05-1.16-2.37-1.72-3.96-1.72h-33.05c-2.64,0-4.71.66-6.22,1.98-1.5,1.32-2.51,2.51-3.04,3.58l-38.08,68.21-37.8-68.21c-.53-1.06-1.56-2.26-3.04-3.58-1.5-1.32-3.58-1.98-6.22-1.98h-33.05c-1.6,0-2.95.57-4.11,1.72-1.14,1.16-1.71,2.42-1.71,3.83,0,.53.07,1.01.26,1.45.18.44.35.94.53,1.45l61.35,113.19v56.86c0,1.76.66,3.3,1.98,4.62,1.32,1.32,2.86,1.98,4.62,1.98h34.37c1.94,0,3.58-.66,4.9-1.98,1.32-1.32,1.98-2.86,1.98-4.62v-56.86l61.35-113.19c.17-.51.31-1.01.4-1.45.07-.44.13-.92.13-1.45,0-1.41-.53-2.68-1.6-3.83Z"/>
  </g>
  <g>
    <path class="cls-1" d="m399.15,639.34c-1.16-1.83-2.77-3.21-4.86-4.13-2.11-.94-4.57-1.39-7.41-1.39h-14.66c-.42,0-.75.13-.97.39-.24.24-.35.59-.35,1.01v37.64c0,.39.11.72.35.95.22.26.55.39.97.39h3.06c.42,0,.75-.13,1.01-.39.26-.24.37-.57.37-.95v-14.42h10.22c2.84,0,5.3-.46,7.41-1.38,2.09-.92,3.71-2.29,4.86-4.09,1.16-1.82,1.74-4.07,1.74-6.8s-.59-5.01-1.74-6.82Zm-6.16,12.36c-1.43,1.27-3.56,1.89-6.4,1.89h-9.98v-14.93h9.98c2.92,0,5.08.66,6.46,1.96,1.38,1.3,2.07,3.15,2.07,5.54s-.72,4.27-2.13,5.54Z"/>
    <path class="cls-1" d="m449.61,672.39l-8.9-15.33c2.55-.73,4.55-2.02,6.03-3.89,1.49-1.87,2.22-4.27,2.22-7.25,0-4-1.27-7.01-3.8-9.04-2.55-2.04-5.98-3.06-10.33-3.06h-14.07c-.42,0-.75.13-.97.39-.24.24-.35.59-.35,1.01v37.64c0,.39.11.72.35.95.22.26.55.39.97.39h2.93c.42,0,.77-.13,1.01-.39.26-.24.39-.57.39-.95v-14.88h10.09l8.36,14.66c.22.35.5.68.81,1.03.29.35.77.53,1.43.53h2.77c.31,0,.59-.13.84-.35.24-.24.37-.5.37-.81,0-.2-.06-.4-.17-.64Zm-15-19.31h-9.5v-14.42h9.5c2.93,0,5.08.62,6.49,1.85,1.39,1.23,2.11,3.03,2.11,5.36s-.72,4.18-2.15,5.39c-1.41,1.21-3.58,1.82-6.46,1.82Z"/>
    <path class="cls-1" d="m499.19,649.15c-.11-3.52-.84-6.47-2.2-8.84-1.34-2.37-3.19-4.13-5.56-5.3-2.37-1.17-5.1-1.76-8.22-1.76s-5.91.59-8.27,1.76c-2.37,1.17-4.2,2.93-5.54,5.3-1.32,2.37-2.05,5.32-2.22,8.84-.04,1.71-.06,3.32-.06,4.88s.02,3.17.06,4.88c.17,3.56.86,6.53,2.15,8.9,1.27,2.37,3.06,4.13,5.41,5.25,2.35,1.14,5.17,1.71,8.47,1.71s6.07-.57,8.42-1.71c2.35-1.12,4.16-2.88,5.45-5.25,1.28-2.37,2-5.34,2.11-8.9.07-1.71.11-3.32.11-4.88s-.04-3.17-.11-4.88Zm-5.78,9.46c-.15,3.96-1.16,6.82-3.03,8.58-1.85,1.78-4.26,2.66-7.17,2.66s-5.32-.88-7.21-2.66c-1.89-1.76-2.9-4.62-3.04-8.58-.06-1.72-.07-3.28-.07-4.64s.02-2.9.07-4.59c.11-2.66.62-4.81,1.52-6.46.9-1.65,2.11-2.86,3.59-3.63,1.5-.77,3.21-1.16,5.14-1.16s3.63.39,5.14,1.16,2.7,1.98,3.59,3.63c.92,1.65,1.39,3.8,1.47,6.46.09,1.69.13,3.23.13,4.59s-.04,2.92-.13,4.64Z"/>
    <path class="cls-1" d="m550.27,649.45c-.04-3.37-.62-6.24-1.74-8.57-1.1-2.31-2.88-4.07-5.3-5.26-2.42-1.19-5.61-1.8-9.57-1.8h-13.08c-.42,0-.75.13-.99.39-.22.24-.33.59-.33,1.01v37.64c0,.39.11.72.33.95.24.26.57.39.99.39h13.37c3.89,0,7.01-.57,9.37-1.71s4.09-2.86,5.19-5.19c1.1-2.33,1.67-5.26,1.76-8.79.04-1.71.06-3.19.06-4.51s-.02-2.82-.06-4.55Zm-5.59,5.8c0,.86-.04,1.87-.13,3.03-.04,2.66-.4,4.79-1.12,6.4-.72,1.61-1.85,2.79-3.43,3.52-1.58.73-3.69,1.08-6.35,1.08h-8.75v-30.56h8.47c4,0,6.84.9,8.53,2.7,1.69,1.78,2.57,4.55,2.64,8.27.09,1.1.13,2.09.13,2.97v2.59Z"/>
    <path class="cls-1" d="m600.92,634.21c-.26-.26-.57-.39-.95-.39h-2.99c-.39,0-.72.13-.95.39-.26.24-.39.59-.39,1.01v23.51c0,3.78-.88,6.55-2.68,8.36-1.78,1.82-4.2,2.71-7.23,2.71s-5.5-.9-7.26-2.71c-1.78-1.82-2.66-4.59-2.66-8.36v-23.51c0-.42-.13-.77-.37-1.01-.26-.26-.59-.39-1.01-.39h-2.95c-.42,0-.73.13-.97.39-.24.24-.35.59-.35,1.01v23.4c0,3.72.62,6.77,1.87,9.13,1.25,2.37,3.05,4.13,5.37,5.28,2.31,1.16,5.1,1.72,8.33,1.72s6.05-.57,8.36-1.72c2.29-1.16,4.07-2.92,5.32-5.28,1.25-2.37,1.87-5.41,1.87-9.13v-23.4c0-.42-.11-.77-.37-1.01Z"/>
    <path class="cls-1" d="m651.91,660.69h-3.17c-.35,0-.64.09-.88.29-.26.18-.44.53-.55,1.03-.66,3.01-1.87,5.06-3.67,6.18-1.78,1.12-4,1.67-6.66,1.67-3.12,0-5.58-.88-7.37-2.62-1.82-1.74-2.77-4.55-2.88-8.4-.13-3.3-.13-6.53,0-9.68.11-3.83,1.06-6.62,2.88-8.38,1.8-1.74,4.26-2.62,7.37-2.62,2.66,0,4.88.57,6.66,1.67,1.8,1.12,3.01,3.17,3.67,6.18.11.5.29.84.55,1.03.24.2.53.29.88.29h3.17c.35,0,.64-.11.9-.35.26-.24.35-.51.31-.86-.07-1.61-.46-3.19-1.16-4.7-.68-1.52-1.69-2.9-3.03-4.13-1.32-1.23-2.99-2.22-4.99-2.93-2-.73-4.31-1.1-6.97-1.1-3.54,0-6.46.64-8.79,1.96-2.33,1.3-4.09,3.14-5.28,5.47-1.19,2.35-1.83,5.08-1.96,8.2-.04,1.65-.06,3.37-.06,5.19s.02,3.49.06,5.06c.13,3.12.77,5.85,1.96,8.2,1.19,2.33,2.95,4.16,5.28,5.47s5.25,1.96,8.79,1.96c2.66,0,4.97-.37,6.97-1.1,2-.72,3.67-1.71,4.99-2.93,1.34-1.23,2.35-2.6,3.03-4.15.7-1.54,1.08-3.12,1.16-4.73.04-.35-.05-.62-.31-.84-.26-.2-.55-.31-.9-.31Z"/>
    <path class="cls-1" d="m698.94,634.21c-.26-.26-.59-.39-1.01-.39h-27.81c-.39,0-.7.13-.94.39-.26.24-.39.59-.39,1.01v2.42c0,.39.13.7.39.95.24.24.55.37.94.37h11.08v33.9c0,.39.13.72.37.95.26.26.57.39.95.39h3.01c.42,0,.75-.13,1.01-.39.24-.24.37-.57.37-.95v-33.9h11.02c.42,0,.75-.13,1.01-.37.24-.26.37-.57.37-.95v-2.42c0-.42-.13-.77-.37-1.01Z"/>
    <path class="cls-1" d="m722.65,634.21c-.24-.26-.55-.39-.97-.39h-3.06c-.42,0-.75.13-.99.39-.22.24-.33.57-.33.95v37.69c0,.39.11.72.33.95.24.26.57.39.99.39h3.06c.42,0,.73-.13.97-.39.24-.24.35-.57.35-.95v-37.69c0-.39-.11-.72-.35-.95Z"/>
    <path class="cls-1" d="m775.04,634.17c-.26-.22-.53-.35-.84-.35h-2.99c-.48,0-.81.13-1.05.39-.24.24-.39.46-.46.66l-11.3,32.69-11.24-32.69c-.07-.2-.24-.42-.5-.66-.26-.26-.6-.39-1.06-.39h-2.99c-.31,0-.59.13-.81.35-.24.24-.35.5-.35.81,0,.2.04.4.11.64l12.86,37.07c.18.46.44.83.77,1.1.33.26.79.4,1.36.4h3.76c.57,0,1.03-.15,1.34-.4.33-.28.57-.64.73-1.1l12.91-37.07c.07-.24.11-.44.11-.64,0-.31-.13-.57-.37-.81Z"/>
    <path class="cls-1" d="m799.21,634.21c-.22-.26-.55-.39-.97-.39h-3.06c-.42,0-.75.13-.97.39-.24.24-.35.57-.35.95v37.69c0,.39.11.72.35.95.22.26.55.39.97.39h3.06c.42,0,.75-.13.97-.39.24-.24.35-.57.35-.95v-37.69c0-.39-.11-.72-.35-.95Z"/>
    <path class="cls-1" d="m847.67,634.21c-.26-.26-.59-.39-1.01-.39h-27.79c-.39,0-.7.13-.95.39-.26.24-.37.59-.37,1.01v2.42c0,.39.11.7.37.95.26.24.57.37.95.37h11.08v33.9c0,.39.11.72.37.95.26.26.57.39.95.39h2.99c.42,0,.77-.13,1.01-.39.26-.24.39-.57.39-.95v-33.9h11.01c.42,0,.75-.13,1.01-.37.26-.26.39-.57.39-.95v-2.42c0-.42-.13-.77-.39-1.01Z"/>
    <path class="cls-1" d="m896.24,634.17c-.22-.22-.51-.35-.86-.35h-2.93c-.35,0-.64.09-.9.26-.26.18-.48.42-.66.73l-11.24,18.67-11.24-18.67c-.11-.31-.31-.55-.57-.73-.27-.17-.59-.26-.94-.26h-2.99c-.31,0-.59.13-.81.35-.24.24-.35.5-.35.81,0,.17.02.29.06.4s.07.24.11.35l13.9,23.53v13.59c0,.39.13.72.37.95.26.26.57.39.95.39h3.01c.42,0,.75-.13,1.01-.39.24-.24.37-.57.37-.95v-13.59l13.85-23.53c.07-.11.13-.24.17-.35s.06-.24.06-.4c0-.31-.11-.57-.35-.81Z"/>
    <path class="cls-1" d="m944.21,634.21c-.22-.26-.55-.39-.97-.39h-3.06c-.42,0-.73.13-.97.39-.24.24-.35.57-.35.95v37.69c0,.39.11.72.35.95.24.26.55.39.97.39h3.06c.42,0,.75-.13.97-.39.24-.24.35-.57.35-.95v-37.69c0-.39-.11-.72-.35-.95Z"/>
    <path class="cls-1" d="m995.79,634.21c-.26-.26-.59-.39-1.01-.39h-2.77c-.42,0-.75.13-.97.39-.24.24-.35.59-.35,1.01v28.82l-19.15-29.4c-.04-.11-.16-.28-.4-.48-.22-.22-.57-.33-1.03-.33h-2.66c-.42,0-.75.13-.97.39-.24.24-.35.59-.35,1.01v37.64c0,.39.11.72.35.95.22.26.55.39.97.39h2.77c.42,0,.75-.13,1.01-.39.26-.24.39-.57.39-.95v-28.6l19.08,29.13c.07.07.22.22.44.46.2.22.51.35.94.35h2.77c.39,0,.7-.15.95-.4.26-.28.39-.61.39-.99v-37.58c0-.42-.13-.77-.39-1.01Z"/>
    <path class="cls-1" d="m1071.92,634.17c-.24-.22-.53-.35-.86-.35h-2.95c-.35,0-.64.09-.88.26-.26.18-.48.42-.68.73l-11.24,18.67-11.23-18.67c-.13-.31-.31-.55-.59-.73-.27-.17-.57-.26-.92-.26h-3.01c-.29,0-.57.13-.81.35-.22.24-.35.5-.35.81,0,.17.02.29.07.4.04.11.07.24.11.35l13.89,23.53v13.59c0,.39.13.72.39.95.26.26.57.39.95.39h2.99c.42,0,.77-.13,1.01-.39.26-.24.39-.57.39-.95v-13.59l13.83-23.53c.07-.11.13-.24.17-.35.04-.11.07-.24.07-.4,0-.31-.13-.57-.35-.81Z"/>
    <path class="cls-1" d="m1119.3,649.15c-.11-3.52-.84-6.47-2.18-8.84-1.34-2.37-3.19-4.13-5.56-5.3-2.37-1.17-5.1-1.76-8.22-1.76s-5.91.59-8.27,1.76c-2.37,1.17-4.22,2.93-5.54,5.3-1.32,2.37-2.07,5.32-2.22,8.84-.04,1.71-.06,3.32-.06,4.88s.02,3.17.06,4.88c.15,3.56.86,6.53,2.13,8.9,1.27,2.37,3.08,4.13,5.43,5.25,2.35,1.14,5.17,1.71,8.47,1.71s6.07-.57,8.42-1.71c2.35-1.12,4.15-2.88,5.45-5.25,1.28-2.37,1.98-5.34,2.09-8.9.09-1.71.13-3.32.13-4.88s-.04-3.17-.13-4.88Zm-5.76,9.46c-.15,3.96-1.16,6.82-3.03,8.58-1.87,1.78-4.26,2.66-7.17,2.66s-5.32-.88-7.21-2.66c-1.89-1.76-2.9-4.62-3.06-8.58-.04-1.72-.06-3.28-.06-4.64s.02-2.9.06-4.59c.13-2.66.62-4.81,1.54-6.46.9-1.65,2.09-2.86,3.59-3.63,1.5-.77,3.21-1.16,5.14-1.16s3.63.39,5.14,1.16c1.49.77,2.7,1.98,3.59,3.63.9,1.65,1.39,3.8,1.47,6.46.07,1.69.11,3.23.11,4.59s-.04,2.92-.11,4.64Z"/>
    <path class="cls-1" d="m1169.78,634.21c-.24-.26-.57-.39-.94-.39h-3.01c-.39,0-.7.13-.95.39-.24.24-.37.59-.37,1.01v23.51c0,3.78-.9,6.55-2.68,8.36-1.8,1.82-4.2,2.71-7.25,2.71s-5.5-.9-7.26-2.71-2.66-4.59-2.66-8.36v-23.51c0-.42-.11-.77-.37-1.01-.26-.26-.59-.39-1.01-.39h-2.93c-.42,0-.75.13-.99.39-.22.24-.35.59-.35,1.01v23.4c0,3.72.64,6.77,1.89,9.13,1.25,2.37,3.03,4.13,5.36,5.28s5.1,1.72,8.33,1.72,6.05-.57,8.36-1.72c2.31-1.16,4.09-2.92,5.34-5.28,1.25-2.37,1.87-5.41,1.87-9.13v-23.4c0-.42-.13-.77-.39-1.01Z"/>
    <path class="cls-1" d="m1221.47,672.39l-8.88-15.33c2.53-.73,4.55-2.02,6.03-3.89,1.47-1.87,2.22-4.27,2.22-7.25,0-4-1.28-7.01-3.81-9.04-2.53-2.04-5.98-3.06-10.31-3.06h-14.07c-.42,0-.75.13-.99.39-.22.24-.35.59-.35,1.01v37.64c0,.39.13.72.35.95.24.26.57.39.99.39h2.93c.42,0,.75-.13,1.01-.39.24-.24.37-.57.37-.95v-14.88h10.09l8.36,14.66c.24.35.5.68.81,1.03.31.35.79.53,1.45.53h2.77c.29,0,.59-.13.83-.35.26-.24.39-.5.39-.81,0-.2-.07-.4-.18-.64Zm-14.99-19.31h-9.52v-14.42h9.52c2.92,0,5.08.62,6.49,1.85,1.39,1.23,2.09,3.03,2.09,5.36s-.72,4.18-2.13,5.39c-1.41,1.21-3.58,1.82-6.46,1.82Z"/>
    <path class="cls-1" d="m1296.41,672.39l-8.88-15.33c2.55-.73,4.55-2.02,6.03-3.89,1.49-1.87,2.22-4.27,2.22-7.25,0-4-1.27-7.01-3.82-9.04-2.53-2.04-5.96-3.06-10.31-3.06h-14.07c-.42,0-.75.13-.99.39-.22.24-.33.59-.33,1.01v37.64c0,.39.11.72.33.95.24.26.57.39.99.39h2.93c.42,0,.75-.13,1.01-.39.26-.24.39-.57.39-.95v-14.88h10.09l8.35,14.66c.24.35.51.68.81,1.03.31.35.79.53,1.45.53h2.77c.31,0,.59-.13.83-.35.26-.24.39-.5.39-.81,0-.2-.06-.4-.18-.64Zm-14.99-19.31h-9.5v-14.42h9.5c2.92,0,5.08.62,6.49,1.85,1.39,1.23,2.11,3.03,2.11,5.36s-.72,4.18-2.15,5.39c-1.41,1.21-3.58,1.82-6.46,1.82Z"/>
    <path class="cls-1" d="m1346.32,634.21c-.26-.26-.59-.39-1.01-.39h-2.93c-.39,0-.72.13-.95.39-.26.24-.39.59-.39,1.01v15.9h-19.83v-15.9c0-.42-.13-.77-.37-1.01-.26-.26-.59-.39-1.01-.39h-2.95c-.42,0-.75.13-.97.39-.24.24-.35.59-.35,1.01v37.64c0,.39.11.72.35.95.22.26.55.39.97.39h2.95c.42,0,.75-.13,1.01-.39.24-.24.37-.57.37-.95v-16.54h19.83v16.54c0,.39.13.72.39.95.24.26.57.39.95.39h2.93c.42,0,.75-.13,1.01-.39.26-.24.37-.57.37-.95v-37.64c0-.42-.11-.77-.37-1.01Z"/>
    <path class="cls-1" d="m1398.47,634.17c-.24-.22-.51-.35-.86-.35h-2.93c-.35,0-.66.09-.9.26-.26.18-.48.42-.66.73l-11.24,18.67-11.24-18.67c-.11-.31-.31-.55-.59-.73-.26-.17-.57-.26-.92-.26h-2.99c-.31,0-.59.13-.81.35-.24.24-.35.5-.35.81,0,.17.02.29.06.4s.07.24.11.35l13.9,23.53v13.59c0,.39.13.72.37.95.26.26.57.39.95.39h2.99c.44,0,.77-.13,1.01-.39.26-.24.39-.57.39-.95v-13.59l13.83-23.53c.07-.11.15-.24.18-.35s.06-.24.06-.4c0-.31-.11-.57-.35-.81Z"/>
    <path class="cls-1" d="m1443.64,634.21c-.26-.26-.59-.39-1.01-.39h-27.79c-.39,0-.72.13-.95.39-.26.24-.39.59-.39,1.01v2.42c0,.39.13.7.39.95.24.24.57.37.95.37h11.06v33.9c0,.39.13.72.39.95.24.26.55.39.94.39h3.01c.42,0,.75-.13,1.01-.39.26-.24.37-.57.37-.95v-33.9h11.02c.42,0,.75-.13,1.01-.37.24-.26.37-.57.37-.95v-2.42c0-.42-.13-.77-.37-1.01Z"/>
    <path class="cls-1" d="m1492.76,634.21c-.26-.26-.59-.39-1.01-.39h-2.95c-.39,0-.7.13-.94.39-.26.24-.39.59-.39,1.01v15.9h-19.83v-15.9c0-.42-.13-.77-.39-1.01-.24-.26-.59-.39-1.01-.39h-2.93c-.42,0-.75.13-.97.39-.24.24-.35.59-.35,1.01v37.64c0,.39.11.72.35.95.22.26.55.39.97.39h2.93c.42,0,.77-.13,1.01-.39.26-.24.39-.57.39-.95v-16.54h19.83v16.54c0,.39.13.72.39.95.24.26.55.39.94.39h2.95c.42,0,.75-.13,1.01-.39.24-.24.37-.57.37-.95v-37.64c0-.42-.13-.77-.37-1.01Z"/>
    <path class="cls-1" d="m1550.12,634.21c-.24-.26-.59-.39-1.01-.39h-2.82c-.46,0-.79.13-1.01.35-.2.24-.35.42-.42.59l-12.29,23.28-12.16-23.28c-.07-.17-.24-.35-.46-.59-.24-.22-.59-.35-1.05-.35h-2.88c-.39,0-.7.13-.95.39-.26.24-.37.59-.37,1.01v37.64c0,.39.11.72.37.95.26.26.57.39.95.39h2.82c.39,0,.7-.13.95-.39.26-.24.37-.57.37-.95v-28.36l9.68,18.8c.2.37.42.68.7.88.27.22.66.33,1.16.33h1.78c.48,0,.84-.11,1.16-.33.31-.2.55-.51.7-.88l9.63-18.8v28.36c0,.39.13.72.37.95.26.26.57.39.95.39h2.82c.42,0,.77-.13,1.01-.39.26-.24.39-.57.39-.95v-37.64c0-.42-.13-.77-.39-1.01Z"/>
  </g>
</svg>